<?xml version="1.0" encoding="utf-8"?>
<!-- Generator: Adobe Illustrator 22.0.0, SVG Export Plug-In . SVG Version: 6.00 Build 0)  -->
<svg version="1.1" id="Layer_1" xmlns="http://www.w3.org/2000/svg" xmlns:xlink="http://www.w3.org/1999/xlink" x="0px" y="0px"
	 viewBox="0 0 175.5 28.5" style="enable-background:new 0 0 175.5 28.5;" xml:space="preserve">
<style type="text/css">
	.st0{fill:#11789B;}
</style>
<g>
	<g>
		<g>
			<path class="st0" d="M147.4,15.7h-5.3l2.6-6.1L147.4,15.7 M146.3,5.4h-3l-7.7,17.4h3.5l1.7-4.1h7.8l1.7,4.1h3.6L146.3,5.4z"/>
			<path class="st0" d="M106.4,19.8h-3.2V8.6h3.2v0c3.5,0,5.7,2.4,5.7,5.6C112.1,17.4,109.9,19.8,106.4,19.8 M106.4,5.5h-6.5v17.3
				h6.5v0c5.7,0,9.2-3.8,9.2-8.7C115.6,9.9,112.5,5.5,106.4,5.5"/>
			<polyline class="st0" points="70.2,12.4 66.1,5.5 62.1,5.5 68.5,15.7 68.5,22.8 71.9,22.8 71.9,15.6 78.3,5.5 74.5,5.5 
				70.2,12.4 			"/>
			<polyline class="st0" points="55.7,22.9 60.8,5.5 57.3,5.5 54.1,17.4 50.5,5.5 47.2,5.5 43.5,17.4 40.3,5.5 36.7,5.5 41.9,22.9 
				44.8,22.9 48.7,10.6 52.7,22.9 55.7,22.9 			"/>
			<polyline class="st0" points="92.1,16.9 83.3,5.5 80.3,5.5 80.3,22.8 83.6,22.8 83.6,11.1 92.6,22.8 95.4,22.8 95.4,5.5 
				92.1,5.5 92.1,16.9 			"/>
			<polyline class="st0" points="133.2,22.8 133.2,5.5 129.9,5.5 129.9,12.6 122.2,12.6 122.2,5.5 118.8,5.5 118.8,22.8 122.2,22.8 
				122.2,15.7 129.9,15.7 129.9,22.8 133.2,22.8 			"/>
			<polyline class="st0" points="164.5,13.4 159.4,5.5 156,5.5 156,22.8 159.2,22.8 159.2,11.1 164.3,18.7 164.6,18.7 169.6,11.1 
				169.6,22.8 173,22.8 173,5.5 169.5,5.5 164.5,13.4 			"/>
		</g>
	</g>
	<path class="st0" d="M0.3,1.8v25.8h28.5V1.8H0.3z M12.3,7.8c0.2,0,0.3-0.1,0.4-0.3c0.3-0.6,0.9-1.1,1.8-1.1c0.9,0,1.5,0.4,1.8,1.1
		c0.1,0.2,0.2,0.3,0.4,0.3c1,0,1.9,0.7,1.9,1.2c0,0.2-0.2,0.3-0.4,0.4c-0.8,0.1-1.2,0.4-1.8,1.4c-0.7,1.1-1.6,2.5-1.7,2.6
		c-0.1,0.1-0.1,0.1-0.2,0.1c-0.1,0-0.1,0-0.2-0.1c-0.1-0.1-1-1.6-1.7-2.6c-0.6-0.9-1-1.2-1.8-1.4c-0.2,0-0.4-0.1-0.4-0.4
		C10.4,8.6,11.2,7.8,12.3,7.8z M9,9.8c1,0,2,0.4,2.9,1.7c0.4,0.7,1.9,2.9,1.9,3c0,0,0,0.1,0,0.1s0,0.1,0,0.1c0,0-1.2,1.9-1.3,2
		c0,0.1-0.1,0.1-0.2,0.1c-0.1,0-0.1,0-0.1-0.1c0,0-2.3-3.7-2.8-4.4c-0.5-0.7-1-1.3-2-1.3c-0.2,0-0.3-0.1-0.3-0.2
		C7.2,10.5,7.7,9.8,9,9.8z M12.4,22.2c-0.6,0-1.1-0.3-1.4-0.8c0,0-3.9-6.1-4.4-6.9c-0.7-1.1-0.9-1.4-1.6-1.4c-0.2,0-0.3-0.1-0.3-0.3
		c0-0.4,0.6-0.9,1.6-0.9c0.8,0,1.7,0.3,2.5,1.6c0,0,1.9,3,3.4,5.3c0.1,0.1,0.1,0.1,0.2,0.1c0.1,0,0.1-0.1,0.2-0.1
		c0.7-1.1,4.1-6.4,4.5-7.1c0.8-1.3,1.9-1.7,2.9-1.7c1.3,0,1.8,0.7,1.8,1c0,0.1-0.1,0.2-0.3,0.2c-0.9,0-1.5,0.6-2,1.3
		c-0.5,0.7-5.3,8.5-5.7,9C13.5,21.9,13,22.2,12.4,22.2z M23.9,12.9c-0.6,0-0.9,0.3-1.6,1.4c-0.5,0.8-4.4,6.9-4.4,6.9
		c-0.3,0.5-0.8,0.8-1.4,0.8c-0.6,0-1.1-0.3-1.4-0.7c0-0.1-0.1-0.1-0.1-0.2c0-0.1,0.1-0.1,0.1-0.2c0-0.1,4.9-7.7,4.9-7.7
		c0.8-1.3,1.7-1.6,2.5-1.6c1,0,1.6,0.5,1.6,0.9C24.2,12.8,24.2,12.9,23.9,12.9z"/>
</g>
</svg>
