<?xml version="1.0" encoding="utf-8"?>
<!-- Generator: Adobe Illustrator 22.0.0, SVG Export Plug-In . SVG Version: 6.00 Build 0)  -->
<svg version="1.1" id="Layer_1" xmlns="http://www.w3.org/2000/svg" xmlns:xlink="http://www.w3.org/1999/xlink" x="0px" y="0px"
	 viewBox="0 0 149.3 148" style="enable-background:new 0 0 149.3 148;" xml:space="preserve">
<style type="text/css">
	.st0{fill:#2788BF;}
</style>
<g>
	<g>
		<g>
			<g>
				<g>
					<g>
						<path class="st0" d="M91.4,90.5c-0.4,0-0.8-0.1-1.1-0.4c-1.7-1.3-4.8-4.2-6.1-8.1c-0.1-0.3,0-0.6,0.2-0.8l3.8-3.8
							c0.2-0.2,0.5-0.3,0.8-0.2c3.9,1.4,6.8,4.4,8.1,6.1c0.6,0.7,0.5,1.8-0.1,2.4L92.7,90C92.4,90.3,91.9,90.5,91.4,90.5z M85.7,82
							c1.4,3.5,4.3,6,5.5,7c0.1,0.1,0.3,0.1,0.5,0l4.1-4.1c0.1-0.1,0.1-0.3,0-0.5c-1-1.2-3.5-4.1-7-5.5L85.7,82z"/>
						<path class="st0" d="M103.7,99.9c-0.8,0-1.6-0.3-2.2-0.9L92,89.6c-0.3-0.3-0.3-0.8,0-1.1c0.3-0.3,0.8-0.3,1.1,0l9.5,9.5
							c0.3,0.3,0.7,0.5,1.1,0.5c0.9,0,1.6-0.7,1.6-1.6c0-0.4-0.2-0.8-0.5-1.1l-9.5-9.5c-0.3-0.3-0.3-0.8,0-1.1
							c0.3-0.3,0.8-0.3,1.1,0l9.5,9.5c0.6,0.6,0.9,1.4,0.9,2.2C106.8,98.6,105.4,99.9,103.7,99.9z"/>
						<path class="st0" d="M83.9,82.6c-1.2,0-2.5-0.3-3.6-0.9c-1.5-0.8-2.3-2.4-2.7-3.6c-0.5-1.1-0.6-2.3-0.7-3.5l-0.4-4.2
							c0-0.2,0.1-0.4,0.2-0.6c0.2-0.2,0.4-0.2,0.6-0.2l4.2,0.4c1.1,0.1,2.3,0.2,3.5,0.7c1.1,0.5,2.7,1.2,3.6,2.7
							c0.8,1.4,1.1,3.2,0.8,4.6c-0.1,0.4-0.5,0.7-0.9,0.6s-0.7-0.5-0.6-0.9c0.2-1.1-0.1-2.6-0.6-3.6c-0.4-0.8-1.4-1.5-2.8-2.1
							c-0.9-0.4-2-0.5-3-0.6l-3.2-0.3l0.3,3.2c0.1,1,0.2,2.1,0.6,3c0.6,1.4,1.3,2.4,2.1,2.8c1.1,0.6,2.5,0.8,3.6,0.6
							c0.4-0.1,0.8,0.2,0.9,0.6s-0.2,0.8-0.6,0.9C84.7,82.6,84.3,82.6,83.9,82.6z"/>
						<path class="st0" d="M85.7,75.9c-0.3,0-0.5-0.1-0.7-0.4c0,0-0.3-0.4-1.5-0.9c-0.6-0.2-1.5-0.3-2.4-0.4l0.1-1.5
							c1,0.1,2,0.2,2.8,0.5c1.2,0.5,2,1,2.3,1.6c0.2,0.4,0.1,0.8-0.3,1C85.9,75.8,85.8,75.9,85.7,75.9z"/>
					</g>
				</g>
				<g>
					<g>
						<path class="st0" d="M85.7,89.7H58.1c-2.2,0-4-1.8-4-4V55.3c0-1.7,1.4-3.1,3.1-3.1h39.4c1.7,0,3.1,1.4,3.1,3.1V83
							c0,0.4-0.3,0.7-0.7,0.7c-0.4,0-0.7-0.3-0.7-0.7V55.3c0-0.9-0.7-1.6-1.6-1.6H57.3c-0.9,0-1.6,0.7-1.6,1.6v30.5
							c0,1.4,1.1,2.5,2.5,2.5h27.5c0.4,0,0.7,0.3,0.7,0.7C86.4,89.4,86.1,89.7,85.7,89.7z"/>
						<path class="st0" d="M60.4,58.8c-0.6,0-1.2-0.5-1.2-1.2c0-0.6,0.5-1.2,1.2-1.2c0.6,0,1.2,0.5,1.2,1.2
							C61.6,58.3,61.1,58.8,60.4,58.8z M60.4,57.3c-0.2,0-0.3,0.1-0.3,0.3s0.1,0.3,0.3,0.3s0.3-0.1,0.3-0.3
							C60.8,57.5,60.6,57.3,60.4,57.3z"/>
						<path class="st0" d="M65.2,58.8c-0.6,0-1.2-0.5-1.2-1.2c0-0.6,0.5-1.2,1.2-1.2s1.2,0.5,1.2,1.2C66.3,58.3,65.8,58.8,65.2,58.8
							z M65.2,57.3c-0.2,0-0.3,0.1-0.3,0.3s0.1,0.3,0.3,0.3c0.2,0,0.3-0.1,0.3-0.3C65.5,57.5,65.3,57.3,65.2,57.3z"/>
						<path class="st0" d="M69.9,58.8c-0.6,0-1.2-0.5-1.2-1.2c0-0.6,0.5-1.2,1.2-1.2c0.6,0,1.2,0.5,1.2,1.2S70.5,58.8,69.9,58.8z
							 M69.9,57.3c-0.2,0-0.3,0.1-0.3,0.3s0.1,0.3,0.3,0.3c0.2,0,0.3-0.1,0.3-0.3C70.2,57.5,70.1,57.3,69.9,57.3z"/>
					</g>
					<path class="st0" d="M99,63.1H54.9c-0.4,0-0.7-0.3-0.7-0.7s0.3-0.7,0.7-0.7H99c0.4,0,0.7,0.3,0.7,0.7
						C99.8,62.8,99.4,63.1,99,63.1z"/>
				</g>
				<path class="st0" d="M65.7,75.5c-0.1,0-0.2,0-0.3-0.1c-0.7-0.3-4.1-2.1-5.4-4.1c-0.2-0.4-0.1-0.8,0.2-1c0.4-0.2,0.8-0.1,1,0.2
					c0.8,1.2,3,2.7,4.8,3.5c0.4,0.2,0.5,0.6,0.4,1C66.3,75.3,66,75.5,65.7,75.5z"/>
				<path class="st0" d="M69,82.4c-0.7,0-1.5-0.2-2.1-0.6c-1.3-0.8-2.3-2.1-2.6-3.6c-0.3-1.5,0.1-3.1,1-4.3c1.1-1.5,2.8-2.2,4.3-2.7
					c1.6-0.5,3.2-1,4.8-1.2c0.4-0.1,0.8,0.2,0.9,0.6s-0.2,0.8-0.6,0.9c-1.5,0.3-3.1,0.7-4.6,1.2c-1.3,0.5-2.8,1.1-3.7,2.2
					c-0.7,0.9-0.9,2.1-0.7,3.1c0.2,1.1,0.9,2.1,1.9,2.6c0.7,0.4,1.7,0.6,2.2,0.1c0.4-0.3,0.6-1,0.4-1.7c-0.2-0.6-0.6-1.2-1.3-1.7
					c-0.6-0.5-1.2-0.9-2.2-1.3c-0.4-0.2-0.5-0.6-0.3-1s0.6-0.5,1-0.3c1,0.5,1.8,1,2.4,1.5c0.9,0.8,1.5,1.6,1.8,2.5
					c0.4,1.2,0,2.5-0.8,3.2C70.4,82.3,69.7,82.4,69,82.4z"/>
			</g>
		</g>
		<path class="st0" d="M76.1,142.5C38,142.5,7,111.5,7,73.4S38,4.3,76.1,4.3s69.1,31,69.1,69.1S114.2,142.5,76.1,142.5z M76.1,5.8
			C38.8,5.8,8.5,36.2,8.5,73.4c0,37.3,30.3,67.6,67.6,67.6s67.6-30.3,67.6-67.6C143.7,36.2,113.4,5.8,76.1,5.8z"/>
	</g>
</g>
</svg>
