<?xml version="1.0" encoding="utf-8"?>
<!-- Generator: Adobe Illustrator 22.0.0, SVG Export Plug-In . SVG Version: 6.00 Build 0)  -->
<svg version="1.1" id="Layer_1" xmlns="http://www.w3.org/2000/svg" xmlns:xlink="http://www.w3.org/1999/xlink" x="0px" y="0px"
	 viewBox="0 0 144.7 148.3" style="enable-background:new 0 0 144.7 148.3;" xml:space="preserve">
<style type="text/css">
	.st0{fill:#2788BF;}
</style>
<g>
	<g>
		<g>
			<g>
				<g>
					<g>
						<g>
							<path class="st0" d="M62.4,57.5c-1.7,0-3.1-1.4-3.1-3.1v-1c0-1.7,1.4-3.1,3.1-3.1s3.1,1.4,3.1,3.1v1
								C65.4,56.2,64.1,57.5,62.4,57.5z M62.4,51.5c-1.1,0-2,0.9-2,2v1c0,1.1,0.9,2,2,2s2-0.9,2-2v-1C64.3,52.4,63.5,51.5,62.4,51.5
								z"/>
						</g>
						<g>
							<path class="st0" d="M68.2,61.7h-1.1v-3.5l-3.2-1.5l0.5-1l3.1,1.5c0.4,0.2,0.7,0.6,0.7,1.1V61.7z"/>
						</g>
						<g>
							<path class="st0" d="M57.8,61.7h-1.1v-3.5c0-0.5,0.3-0.9,0.7-1.1l3.1-1.5l0.5,1l-3.1,1.5L57.8,61.7z"/>
						</g>
					</g>
				</g>
				<g>
					<path class="st0" d="M62.4,64.3c-5,0-9.1-4.1-9.1-9.1s4.1-9.1,9.1-9.1s9.1,4.1,9.1,9.1C71.4,60.2,67.4,64.3,62.4,64.3z
						 M62.4,47.3c-4.4,0-8,3.6-8,8s3.6,8,8,8s8-3.6,8-8C70.3,50.8,66.8,47.3,62.4,47.3z"/>
				</g>
				<g>
					<rect x="64.3" y="60.3" class="st0" width="1.1" height="3"/>
				</g>
				<g>
					<rect x="59.3" y="60.3" class="st0" width="1.1" height="3"/>
				</g>
			</g>
			<g>
				<g>
					<g>
						<g>
							<path class="st0" d="M62.4,91.6c-1.7,0-3.1-1.4-3.1-3.1v-1c0-1.7,1.4-3.1,3.1-3.1s3.1,1.4,3.1,3.1v1
								C65.4,90.2,64.1,91.6,62.4,91.6z M62.4,85.5c-1.1,0-2,0.9-2,2v1c0,1.1,0.9,2,2,2s2-0.9,2-2v-1C64.3,86.4,63.5,85.5,62.4,85.5
								z"/>
						</g>
						<g>
							<path class="st0" d="M68.2,95.8h-1.1v-3.5l-3.2-1.5l0.5-1l3.1,1.5c0.4,0.2,0.7,0.6,0.7,1.1V95.8z"/>
						</g>
						<g>
							<path class="st0" d="M57.8,95.8h-1.1v-3.5c0-0.5,0.3-0.9,0.7-1.1l3.1-1.5l0.5,1l-3.1,1.5L57.8,95.8z"/>
						</g>
					</g>
				</g>
				<g>
					<path class="st0" d="M62.4,98.3c-5,0-9.1-4.1-9.1-9.1s4.1-9.1,9.1-9.1s9.1,4.1,9.1,9.1C71.4,94.2,67.4,98.3,62.4,98.3z
						 M62.4,81.3c-4.4,0-8,3.6-8,8s3.6,8,8,8s8-3.6,8-8C70.3,84.8,66.8,81.3,62.4,81.3z"/>
				</g>
				<g>
					<rect x="64.3" y="94.4" class="st0" width="1.1" height="3"/>
				</g>
				<g>
					<rect x="59.3" y="94.4" class="st0" width="1.1" height="3"/>
				</g>
			</g>
			<g>
				<g>
					<g>
						<g>
							<path class="st0" d="M92.2,74.5c-1.7,0-3.1-1.4-3.1-3.1v-1c0-1.7,1.4-3.1,3.1-3.1s3.1,1.4,3.1,3.1v1
								C95.2,73.2,93.9,74.5,92.2,74.5z M92.2,68.5c-1.1,0-2,0.9-2,2v1c0,1.1,0.9,2,2,2s2-0.9,2-2v-1C94.1,69.4,93.3,68.5,92.2,68.5
								z"/>
						</g>
						<g>
							<path class="st0" d="M98,78.7h-1.1v-3.5l-3.2-1.5l0.5-1l3.1,1.5c0.4,0.2,0.7,0.6,0.7,1.1V78.7z"/>
						</g>
						<g>
							<path class="st0" d="M87.6,78.7h-1.1v-3.5c0-0.5,0.3-0.9,0.7-1.1l3.1-1.5l0.5,1l-3.1,1.5L87.6,78.7z"/>
						</g>
					</g>
				</g>
				<g>
					<path class="st0" d="M92.2,81.3c-5,0-9.1-4.1-9.1-9.1s4.1-9.1,9.1-9.1s9.1,4.1,9.1,9.1C101.2,77.2,97.2,81.3,92.2,81.3z
						 M92.2,64.3c-4.4,0-8,3.6-8,8s3.6,8,8,8s8-3.6,8-8C100.1,67.8,96.6,64.3,92.2,64.3z"/>
				</g>
				<g>
					<rect x="94.1" y="77.3" class="st0" width="1.1" height="3"/>
				</g>
				<g>
					<rect x="89.1" y="77.3" class="st0" width="1.1" height="3"/>
				</g>
			</g>
			<g>
				
					<rect x="75.4" y="58.5" transform="matrix(0.554 -0.8325 0.8325 0.554 -19.889 92.0558)" class="st0" width="1.1" height="12.2"/>
			</g>
			<g>
				
					<rect x="69.8" y="79.7" transform="matrix(0.8325 -0.554 0.554 0.8325 -31.7527 55.5088)" class="st0" width="12.2" height="1.1"/>
			</g>
			<g>
				<rect x="61.8" y="65.9" class="st0" width="1.1" height="12.6"/>
			</g>
		</g>
		<path class="st0" d="M72.2,141.4c-38.1,0-69.2-31-69.2-69.2C3,34.1,34,3,72.2,3s69.2,31,69.2,69.2S110.4,141.4,72.2,141.4z
			 M72.2,4.6C34.9,4.6,4.5,34.9,4.5,72.2s30.4,67.7,67.7,67.7s67.7-30.4,67.7-67.7S109.5,4.6,72.2,4.6z"/>
	</g>
</g>
</svg>
