<?xml version="1.0" encoding="utf-8"?>
<!-- Generator: Adobe Illustrator 22.0.0, SVG Export Plug-In . SVG Version: 6.00 Build 0)  -->
<svg version="1.1" id="Layer_1" xmlns="http://www.w3.org/2000/svg" xmlns:xlink="http://www.w3.org/1999/xlink" x="0px" y="0px"
	 viewBox="0 0 149.3 149.3" style="enable-background:new 0 0 149.3 149.3;" xml:space="preserve">
<style type="text/css">
	.st0{fill:#2788BF;}
</style>
<g>
	<g>
		<g>
			<g>
				<g>
					<polygon class="st0" points="99.1,81.7 93.7,81.7 93.7,80.6 98.1,80.6 98.1,53.5 55.1,53.5 55.1,80.6 59.2,80.6 59.2,81.7 
						54,81.7 54,52.4 99.1,52.4 					"/>
				</g>
				<g>
					<rect x="65.5" y="80.6" class="st0" width="7.5" height="1.1"/>
				</g>
				<g>
					<rect x="79.8" y="80.6" class="st0" width="7.5" height="1.1"/>
				</g>
			</g>
			<g>
				<g>
					<g>
						<g>
							<g>
								<g>
									<path class="st0" d="M62,86.9c-2.2,0-4-1.8-4-4v-1.4c0-2.2,1.8-4,4-4c2.2,0,4,1.8,4,4v1.4C66,85.1,64.2,86.9,62,86.9z
										 M62,78.5c-1.6,0-3,1.3-3,3v1.4c0,1.6,1.3,3,3,3s3-1.3,3-3v-1.4C65,79.9,63.6,78.5,62,78.5z"/>
								</g>
								<g>
									<path class="st0" d="M69.9,96.8h-1.1v-7.9c0-0.1-0.1-0.2-0.2-0.3l-4.4-2.8l0.6-0.9l4.4,2.7c0.4,0.2,0.7,0.7,0.7,1.2V96.8z"
										/>
								</g>
								<g>
									<path class="st0" d="M55.4,96.8h-1.1v-7.9c0-0.5,0.3-1,0.8-1.3l4.3-2.7l0.6,0.9l-4.4,2.7c-0.2,0.1-0.3,0.2-0.3,0.3v8H55.4z
										"/>
								</g>
							</g>
						</g>
						<g>
							<rect x="65" y="92.6" class="st0" width="1.1" height="4.2"/>
						</g>
						<g>
							<rect x="58" y="92.6" class="st0" width="1.1" height="4.2"/>
						</g>
					</g>
				</g>
				<g>
					<g>
						<g>
							<g>
								<g>
									<path class="st0" d="M76.5,86.9c-2.2,0-4-1.8-4-4v-1.4c0-2.2,1.8-4,4-4s4,1.8,4,4v1.4C80.5,85.1,78.7,86.9,76.5,86.9z
										 M76.5,78.5c-1.6,0-3,1.3-3,3v1.4c0,1.6,1.3,3,3,3c1.6,0,3-1.3,3-3v-1.4C79.5,79.9,78.1,78.5,76.5,78.5z"/>
								</g>
								<g>
									<path class="st0" d="M84.4,96.8h-1.1v-7.9c0-0.1-0.1-0.2-0.2-0.3l-4.4-2.8l0.6-0.9l4.4,2.7c0.4,0.2,0.7,0.7,0.7,1.2V96.8z"
										/>
								</g>
								<g>
									<path class="st0" d="M69.9,96.8h-1.1v-7.9c0-0.5,0.3-1,0.8-1.3l4.3-2.7l0.6,0.9l-4.4,2.7c-0.2,0.1-0.3,0.2-0.3,0.3
										L69.9,96.8L69.9,96.8z"/>
								</g>
							</g>
						</g>
						<g>
							<rect x="79.5" y="92.6" class="st0" width="1.1" height="4.2"/>
						</g>
						<g>
							<rect x="72.5" y="92.6" class="st0" width="1.1" height="4.2"/>
						</g>
					</g>
				</g>
				<g>
					<g>
						<g>
							<g>
								<g>
									<path class="st0" d="M91,86.9c-2.2,0-4-1.8-4-4v-1.4c0-2.2,1.8-4,4-4s4,1.8,4,4v1.4C95,85.1,93.2,86.9,91,86.9z M91,78.5
										c-1.6,0-3,1.3-3,3v1.4c0,1.6,1.3,3,3,3c1.6,0,3-1.3,3-3v-1.4C93.9,79.9,92.6,78.5,91,78.5z"/>
								</g>
								<g>
									<path class="st0" d="M98.8,96.8h-1.1v-7.9c0-0.1-0.1-0.2-0.2-0.3l-4.4-2.8l0.6-0.9l4.4,2.7c0.4,0.2,0.7,0.7,0.7,1.2V96.8z"
										/>
								</g>
								<g>
									<path class="st0" d="M84.4,96.8h-1.1v-7.9c0-0.5,0.3-1,0.8-1.3l4.3-2.7l0.6,0.9l-4.4,2.7c-0.2,0.1-0.3,0.2-0.3,0.3
										L84.4,96.8L84.4,96.8z"/>
								</g>
							</g>
						</g>
						<g>
							<rect x="93.9" y="92.6" class="st0" width="1.1" height="4.2"/>
						</g>
						<g>
							<rect x="86.9" y="92.6" class="st0" width="1.1" height="4.2"/>
						</g>
					</g>
				</g>
			</g>
			<g>
				<g>
					<path class="st0" d="M76.6,75.6c-4.7,0-8.5-3.8-8.5-8.5s3.8-8.5,8.5-8.5s8.5,3.8,8.5,8.5C85.1,71.7,81.3,75.6,76.6,75.6z
						 M76.6,59.6c-4.1,0-7.5,3.4-7.5,7.5s3.4,7.5,7.5,7.5s7.5-3.4,7.5-7.5C84.1,62.9,80.7,59.6,76.6,59.6z"/>
				</g>
				<g>
					<path class="st0" d="M74.1,71.4v-8.7l7.5,4.3L74.1,71.4z M75.1,64.5v5l4.3-2.5L75.1,64.5z"/>
				</g>
			</g>
		</g>
		<path class="st0" d="M76.1,142.6C38,142.6,7,111.6,7,73.5S38,4.4,76.1,4.4s69.1,31,69.1,69.1S114.2,142.6,76.1,142.6z M76.1,5.9
			C38.8,5.9,8.5,36.2,8.5,73.5s30.3,67.6,67.6,67.6s67.6-30.3,67.6-67.6S113.4,5.9,76.1,5.9z"/>
	</g>
</g>
</svg>
