<?xml version="1.0" encoding="utf-8"?>
<!-- Generator: Adobe Illustrator 22.0.0, SVG Export Plug-In . SVG Version: 6.00 Build 0)  -->
<svg version="1.1" id="Layer_1" xmlns="http://www.w3.org/2000/svg" xmlns:xlink="http://www.w3.org/1999/xlink" x="0px" y="0px"
	 viewBox="0 0 143 143" style="enable-background:new 0 0 143 143;" xml:space="preserve">
<style type="text/css">
	.st0{fill:#2788BF;}
</style>
<g>
	<g>
		<g>
			<g>
				<g>
					<g>
						<g>
							<path class="st0" d="M89.8,92.8H51.5c-2.2,0-4-1.8-4-4v-31c0-1.7,1.4-3.2,3.2-3.2h40c1.7,0,3.2,1.4,3.2,3.2v30.9
								C93.8,91,92,92.8,89.8,92.8z M50.7,56.2c-0.9,0-1.7,0.7-1.7,1.7v30.9c0,1.4,1.1,2.5,2.5,2.5h38.2c1.4,0,2.5-1.1,2.5-2.5v-31
								c0-0.9-0.7-1.7-1.7-1.7L50.7,56.2L50.7,56.2z"/>
							<path class="st0" d="M53.9,61.4c-0.6,0-1.2-0.5-1.2-1.2c0-0.6,0.5-1.2,1.2-1.2s1.2,0.5,1.2,1.2C55,60.9,54.5,61.4,53.9,61.4z
								 M53.9,59.9c-0.2,0-0.3,0.1-0.3,0.3s0.1,0.3,0.3,0.3s0.3-0.1,0.3-0.3C54.2,60.1,54,59.9,53.9,59.9z"/>
							<path class="st0" d="M58.7,61.4c-0.6,0-1.2-0.5-1.2-1.2c0-0.6,0.5-1.2,1.2-1.2c0.6,0,1.2,0.5,1.2,1.2
								C59.8,60.9,59.3,61.4,58.7,61.4z M58.7,59.9c-0.2,0-0.3,0.1-0.3,0.3s0.1,0.3,0.3,0.3s0.3-0.1,0.3-0.3
								C59,60.1,58.8,59.9,58.7,59.9z"/>
							<path class="st0" d="M63.5,61.4c-0.6,0-1.2-0.5-1.2-1.2c0-0.6,0.5-1.2,1.2-1.2c0.6,0,1.2,0.5,1.2,1.2
								C64.6,60.9,64.1,61.4,63.5,61.4z M63.5,59.9c-0.2,0-0.3,0.1-0.3,0.3s0.1,0.3,0.3,0.3s0.3-0.1,0.3-0.3
								C63.8,60.1,63.6,59.9,63.5,59.9z"/>
						</g>
						<path class="st0" d="M93.1,65.8H48.3c-0.4,0-0.7-0.3-0.7-0.7s0.3-0.7,0.7-0.7h44.9c0.4,0,0.7,0.3,0.7,0.7S93.5,65.8,93.1,65.8
							z"/>
					</g>
					<path class="st0" d="M88.9,79.6H66c-0.4,0-0.7-0.3-0.7-0.7V68.2c0-0.4,0.3-0.7,0.7-0.7h22.8c0.4,0,0.7,0.3,0.7,0.7v10.6
						C89.6,79.3,89.3,79.6,88.9,79.6z M66.8,78.1h21.3V69H66.8V78.1z"/>
					<g>
						<path class="st0" d="M73.6,70.4h1l2.6,6h-1.1L75.5,75h-2.8l-0.6,1.4H71L73.6,70.4z M75.1,74l-1-2.4l-1,2.4H75.1z"/>
						<path class="st0" d="M78.2,70.5h2.2c1.9,0,3.1,1.3,3.1,2.9l0,0c0,1.7-1.3,3-3.1,3h-2.2V70.5z M79.2,71.4v4h1.2
							c1.2,0,2.1-0.8,2.1-2l0,0c0-1.2-0.8-2-2.1-2H79.2z"/>
					</g>
					<path class="st0" d="M70.3,73.8h-1.6c-0.4,0-0.7-0.3-0.7-0.7c0-0.4,0.3-0.7,0.7-0.7h1.6c0.4,0,0.7,0.3,0.7,0.7
						C71,73.4,70.7,73.8,70.3,73.8z"/>
					<path class="st0" d="M86.8,73.8h-1.6c-0.4,0-0.7-0.3-0.7-0.7c0-0.4,0.3-0.7,0.7-0.7h1.6c0.4,0,0.7,0.3,0.7,0.7
						C87.5,73.4,87.2,73.8,86.8,73.8z"/>
				</g>
			</g>
			<path class="st0" d="M63.4,69H51.2c-0.4,0-0.7-0.3-0.7-0.7s0.3-0.7,0.7-0.7h12.2c0.4,0,0.7,0.3,0.7,0.7S63.8,69,63.4,69z"/>
			<path class="st0" d="M63.4,78.6H51.2c-0.4,0-0.7-0.3-0.7-0.7s0.3-0.7,0.7-0.7h12.2c0.4,0,0.7,0.3,0.7,0.7S63.8,78.6,63.4,78.6z"
				/>
			<path class="st0" d="M63.4,81.7H51.2c-0.4,0-0.7-0.3-0.7-0.7c0-0.4,0.3-0.7,0.7-0.7h12.2c0.4,0,0.7,0.3,0.7,0.7
				C64.1,81.4,63.8,81.7,63.4,81.7z"/>
			<path class="st0" d="M63.4,84.9H51.2c-0.4,0-0.7-0.3-0.7-0.7c0-0.4,0.3-0.7,0.7-0.7h12.2c0.4,0,0.7,0.3,0.7,0.7
				S63.8,84.9,63.4,84.9z"/>
			<path class="st0" d="M63.4,88.1H51.2c-0.4,0-0.7-0.3-0.7-0.7c0-0.4,0.3-0.7,0.7-0.7h12.2c0.4,0,0.7,0.3,0.7,0.7
				C64.1,87.8,63.8,88.1,63.4,88.1z"/>
			<path class="st0" d="M71.9,141.6c-38.2,0-69.2-31.1-69.2-69.2c0-38.2,31.1-69.2,69.2-69.2c38.2,0,69.2,31.1,69.2,69.2
				C141.1,110.6,110,141.6,71.9,141.6z M71.9,4.7C34.5,4.7,4.1,35,4.1,72.4c0,37.3,30.4,67.7,67.7,67.7s67.7-30.4,67.7-67.7
				C139.6,35,109.2,4.7,71.9,4.7z"/>
		</g>
	</g>
</g>
</svg>
