<?xml version="1.0" encoding="utf-8"?>
<!-- Generator: Adobe Illustrator 22.0.0, SVG Export Plug-In . SVG Version: 6.00 Build 0)  -->
<svg version="1.1" id="Layer_1" xmlns="http://www.w3.org/2000/svg" xmlns:xlink="http://www.w3.org/1999/xlink" x="0px" y="0px"
	 viewBox="0 0 149.3 147" style="enable-background:new 0 0 149.3 147;" xml:space="preserve">
<style type="text/css">
	.st0{fill:#2788BF;}
</style>
<g>
	<g>
		<g>
			<g>
				<g>
					<path class="st0" d="M96.3,96.7H82.4c-0.4,0-0.7-0.3-0.7-0.7v-5.1c0-0.6,0.3-1.1,0.8-1.4s1.1-0.2,1.6,0.1l0.1,0.1
						c0.4,0.3,1,0.2,1.3-0.2c0.2-0.2,0.2-0.5,0.2-0.8c-0.1-0.4-0.4-0.6-0.7-0.7c-0.3-0.1-0.6,0-0.8,0.2c-0.5,0.4-1.1,0.4-1.6,0.2
						c-0.5-0.3-0.9-0.8-0.9-1.4v-5.1c0-0.4,0.3-0.7,0.7-0.7h5.1l0.6-0.6l-0.6,0.5c-0.5-0.6-0.7-1.3-0.5-2c0.2-0.9,0.9-1.7,1.9-1.9
						c0.7-0.2,1.5,0,2.1,0.5s0.9,1.2,0.9,1.9c0,0.5-0.2,1.1-0.5,1.5v0.1h0.1h5c0.4,0,0.7,0.3,0.7,0.7V96
						C97.1,96.4,96.8,96.7,96.3,96.7z M83.2,95.2h12.4V82.6h-4.3c-0.6,0-1.1-0.3-1.4-0.9c-0.3-0.5-0.2-1.1,0.1-1.6V80
						c0.1-0.2,0.2-0.4,0.2-0.6c0-0.3-0.1-0.6-0.3-0.7c-0.2-0.2-0.5-0.3-0.8-0.2c-0.4,0.1-0.6,0.4-0.7,0.7c-0.1,0.3,0,0.6,0.2,0.8
						c0.4,0.5,0.5,1.1,0.2,1.7c-0.3,0.5-0.8,0.9-1.4,0.9h-4.3V87c0.6-0.4,1.3-0.6,2.1-0.5c0.9,0.2,1.7,0.9,1.9,1.9
						c0.2,0.7,0,1.5-0.5,2.1c-0.8,1-2.4,1.2-3.4,0.4h-0.1L83.2,95.2z"/>
					<path class="st0" d="M74,84.9h-5.2c-0.5,0-0.9-0.3-1.2-0.7c-0.2-0.4-0.2-0.9,0.1-1.3l0.7,0.4l-0.6-0.5c0.2-0.2,0.2-0.4,0.2-0.7
						c0-0.3-0.1-0.6-0.4-0.9C67.3,81,67,80.9,66.7,81c-0.4,0.1-0.8,0.4-0.9,0.9c-0.1,0.3,0,0.6,0.2,0.9c0.3,0.4,0.4,0.9,0.2,1.4
						c-0.2,0.5-0.7,0.7-1.2,0.7h-5c-0.4,0-0.7-0.3-0.7-0.7v-14c0-0.4,0.3-0.7,0.7-0.7h5.1c0.5,0,1,0.3,1.2,0.7
						c0.2,0.5,0.2,1-0.1,1.4l-0.1,0.1c-0.1,0.2-0.2,0.4-0.2,0.7c0,0.3,0.1,0.6,0.4,0.8c0.3,0.2,0.6,0.3,0.9,0.2
						c0.4-0.1,0.8-0.4,0.9-0.9c0.1-0.3,0-0.6-0.2-0.9l0,0c-0.3-0.4-0.4-0.9-0.1-1.4c0.2-0.5,0.7-0.8,1.2-0.8h5
						c0.4,0,0.7,0.3,0.7,0.7V75c0,0.1,0.1,0.2,0.1,0.2c0.1,0,0.1,0,0.2,0c0.6-0.5,1.3-0.7,2.1-0.6c1.1,0.2,1.9,1,2.1,2
						c0.2,0.8,0,1.6-0.5,2.2c-0.9,1-2.5,1.2-3.6,0.4c-0.1-0.1-0.2-0.1-0.3-0.1c0,0-0.1,0.1-0.1,0.2v4.8C74.8,84.5,74.4,84.9,74,84.9
						z M69.3,83.4h4v-4.1c0-0.6,0.4-1.2,0.9-1.5c0.6-0.3,1.3-0.2,1.8,0.1l0.1,0.1c0.4,0.3,1.2,0.3,1.5-0.2c0.2-0.3,0.3-0.6,0.2-0.9
						c-0.1-0.4-0.4-0.8-0.9-0.9l0,0c-0.3-0.1-0.6,0-0.9,0.2c-0.5,0.4-1.2,0.5-1.8,0.2c-0.6-0.3-1-0.9-1-1.5v-4.1h-4.1
						c0.3,0.5,0.5,1.2,0.4,1.8c-0.2,1.1-1,1.9-2,2.1c-0.8,0.2-1.6,0-2.2-0.5s-0.9-1.2-0.9-2c0-0.5,0.1-1,0.4-1.4h-4.1v12.5h4
						c-0.3-0.5-0.4-1.1-0.3-1.8c0.2-1.1,1-1.9,2-2.1c0.8-0.2,1.6,0,2.2,0.5s0.9,1.2,0.9,2C69.6,82.5,69.5,83,69.3,83.4z"/>
					<g>
						<g>
							<path class="st0" d="M80.7,90.9H58.4c-2.1,0-3.7-1.7-3.7-3.7V58.8c0-1.6,1.3-2.9,2.9-2.9h36.5c1.6,0,2.9,1.3,2.9,2.9v21.3
								c0,0.4-0.3,0.7-0.7,0.7c-0.4,0-0.7-0.3-0.7-0.7V58.8c0-0.8-0.7-1.5-1.5-1.5H57.6c-0.8,0-1.5,0.7-1.5,1.5v28.3
								c0,1.2,1,2.2,2.2,2.2h22.3c0.4,0,0.7,0.3,0.7,0.7C81.5,90.5,81.2,90.9,80.7,90.9z"/>
							<path class="st0" d="M60.5,62.2c-0.6,0-1.1-0.5-1.1-1.1s0.5-1.1,1.1-1.1s1.1,0.5,1.1,1.1C61.7,61.7,61.1,62.2,60.5,62.2z
								 M60.5,60.7c-0.2,0-0.4,0.2-0.4,0.4s0.2,0.4,0.4,0.4s0.4-0.2,0.4-0.4S60.7,60.7,60.5,60.7z"/>
							<path class="st0" d="M64.9,62.2c-0.6,0-1.1-0.5-1.1-1.1s0.5-1.1,1.1-1.1s1.1,0.5,1.1,1.1S65.5,62.2,64.9,62.2z M64.9,60.7
								c-0.2,0-0.4,0.2-0.4,0.4s0.2,0.4,0.4,0.4c0.2,0,0.4-0.2,0.4-0.4S65.1,60.7,64.9,60.7z"/>
							<path class="st0" d="M69.3,62.2c-0.6,0-1.1-0.5-1.1-1.1s0.5-1.1,1.1-1.1s1.1,0.5,1.1,1.1S69.9,62.2,69.3,62.2z M69.3,60.7
								c-0.2,0-0.4,0.2-0.4,0.4s0.2,0.4,0.4,0.4c0.2,0,0.4-0.2,0.4-0.4C69.7,60.9,69.5,60.7,69.3,60.7z"/>
						</g>
						<path class="st0" d="M96.3,66.1H55.4c-0.4,0-0.7-0.3-0.7-0.7c0-0.4,0.3-0.7,0.7-0.7h40.9c0.4,0,0.7,0.3,0.7,0.7
							C97.1,65.8,96.8,66.1,96.3,66.1z"/>
					</g>
				</g>
			</g>
			<path class="st0" d="M75.6,141.8c-38.1,0-69.2-31-69.2-69.2c0-38.1,31-69.2,69.2-69.2s69.2,31,69.2,69.2
				C144.7,110.8,113.7,141.8,75.6,141.8z M75.6,5C38.3,5,7.9,35.3,7.9,72.7c0,37.3,30.4,67.7,67.7,67.7s67.7-30.4,67.7-67.7
				C143.2,35.3,112.9,5,75.6,5z"/>
		</g>
	</g>
</g>
</svg>
