<?xml version="1.0" encoding="utf-8"?>
<!-- Generator: Adobe Illustrator 22.0.0, SVG Export Plug-In . SVG Version: 6.00 Build 0)  -->
<svg version="1.1" id="Layer_1" xmlns="http://www.w3.org/2000/svg" xmlns:xlink="http://www.w3.org/1999/xlink" x="0px" y="0px"
	 viewBox="0 0 149 148.7" style="enable-background:new 0 0 149 148.7;" xml:space="preserve">
<style type="text/css">
	.st0{fill:#222E3B;}
</style>
<g>
	<g>
		<g>
			<g>
				<g>
					<g>
						<path class="st0" d="M89.4,89.9c-0.4,0-0.8-0.1-1.1-0.4c-1.7-1.3-4.8-4.2-6.1-8.1c-0.1-0.3,0-0.6,0.2-0.8l3.8-3.8
							c0.2-0.2,0.5-0.3,0.8-0.2c3.9,1.4,6.8,4.4,8.1,6.1c0.6,0.7,0.5,1.8-0.1,2.4l-4.1,4.1C90.4,89.7,89.9,89.9,89.4,89.9z
							 M83.7,81.4c1.4,3.5,4.3,6,5.5,7c0.1,0.1,0.3,0.1,0.5,0l4.1-4.1c0.1-0.1,0.1-0.3,0-0.5c-1-1.2-3.5-4.1-7-5.5L83.7,81.4z"/>
						<path class="st0" d="M101.7,99.4c-0.8,0-1.6-0.3-2.2-0.9L90,89c-0.3-0.3-0.3-0.8,0-1.1c0.3-0.3,0.8-0.3,1.1,0l9.5,9.5
							c0.3,0.3,0.7,0.5,1.1,0.5c0.9,0,1.6-0.7,1.6-1.6c0-0.4-0.2-0.8-0.5-1.1l-9.5-9.5c-0.3-0.3-0.3-0.8,0-1.1
							c0.3-0.3,0.8-0.3,1.1,0l9.5,9.5c0.6,0.6,0.9,1.4,0.9,2.2C104.8,98,103.4,99.4,101.7,99.4z"/>
						<path class="st0" d="M81.9,82c-1.2,0-2.5-0.3-3.6-0.9c-1.5-0.8-2.3-2.4-2.7-3.6c-0.5-1.1-0.6-2.3-0.7-3.5l-0.4-4.2
							c0-0.2,0.1-0.4,0.2-0.6c0.2-0.2,0.4-0.2,0.6-0.2l4.2,0.4c1.1,0.1,2.3,0.2,3.5,0.7c1.1,0.5,2.7,1.2,3.6,2.7
							c0.8,1.4,1.1,3.2,0.8,4.6c-0.1,0.4-0.5,0.7-0.9,0.6s-0.7-0.5-0.6-0.9c0.2-1.1-0.1-2.6-0.6-3.6c-0.4-0.8-1.4-1.5-2.8-2.1
							c-0.9-0.4-2-0.5-3-0.6l-3.2-0.3l0.3,3.2c0.1,1,0.2,2.1,0.6,3c0.6,1.4,1.3,2.4,2.1,2.8c1.1,0.6,2.5,0.8,3.6,0.6
							c0.4-0.1,0.8,0.2,0.9,0.6s-0.2,0.8-0.6,0.9C82.7,82,82.3,82,81.9,82z"/>
						<path class="st0" d="M83.7,75.3c-0.3,0-0.5-0.1-0.7-0.4c0,0-0.3-0.4-1.5-0.9c-0.6-0.2-1.5-0.3-2.4-0.4l0.1-1.5
							c1,0.1,2,0.2,2.8,0.5c1.2,0.5,2,1,2.3,1.6c0.2,0.4,0.1,0.8-0.3,1C83.9,75.2,83.8,75.3,83.7,75.3z"/>
					</g>
				</g>
				<g>
					<g>
						<path class="st0" d="M83.7,89.1H56.1c-2.2,0-4-1.8-4-4V54.7c0-1.7,1.4-3.1,3.1-3.1h39.4c1.7,0,3.1,1.4,3.1,3.1v27.7
							c0,0.4-0.3,0.7-0.7,0.7c-0.4,0-0.7-0.3-0.7-0.7V54.7c0-0.9-0.7-1.6-1.6-1.6H55.3c-0.9,0-1.6,0.7-1.6,1.6v30.5
							c0,1.4,1.1,2.5,2.5,2.5h27.5c0.4,0,0.7,0.3,0.7,0.7C84.4,88.8,84.1,89.1,83.7,89.1z"/>
						<path class="st0" d="M58.4,58.2c-0.6,0-1.2-0.5-1.2-1.2c0-0.6,0.5-1.2,1.2-1.2c0.6,0,1.2,0.5,1.2,1.2
							C59.6,57.7,59.1,58.2,58.4,58.2z M58.4,56.7c-0.2,0-0.3,0.1-0.3,0.3s0.1,0.3,0.3,0.3s0.3-0.1,0.3-0.3
							C58.8,56.9,58.6,56.7,58.4,56.7z"/>
						<path class="st0" d="M63.2,58.2c-0.6,0-1.2-0.5-1.2-1.2c0-0.6,0.5-1.2,1.2-1.2c0.6,0,1.2,0.5,1.2,1.2
							C64.3,57.7,63.8,58.2,63.2,58.2z M63.2,56.7c-0.2,0-0.3,0.1-0.3,0.3s0.1,0.3,0.3,0.3s0.3-0.1,0.3-0.3
							C63.5,56.9,63.3,56.7,63.2,56.7z"/>
						<path class="st0" d="M67.9,58.2c-0.6,0-1.2-0.5-1.2-1.2c0-0.6,0.5-1.2,1.2-1.2c0.6,0,1.2,0.5,1.2,1.2S68.5,58.2,67.9,58.2z
							 M67.9,56.7c-0.2,0-0.3,0.1-0.3,0.3s0.1,0.3,0.3,0.3c0.2,0,0.3-0.1,0.3-0.3C68.2,56.9,68.1,56.7,67.9,56.7z"/>
					</g>
					<path class="st0" d="M97,62.5H52.9c-0.4,0-0.7-0.3-0.7-0.7s0.3-0.7,0.7-0.7H97c0.4,0,0.7,0.3,0.7,0.7
						C97.8,62.2,97.4,62.5,97,62.5z"/>
				</g>
				<path class="st0" d="M63.7,74.9c-0.1,0-0.2,0-0.3-0.1c-0.7-0.3-4.1-2.1-5.4-4.1c-0.2-0.4-0.1-0.8,0.2-1c0.4-0.2,0.8-0.1,1,0.2
					c0.8,1.2,3,2.7,4.8,3.5c0.4,0.2,0.5,0.6,0.4,1C64.3,74.7,64,74.9,63.7,74.9z"/>
				<path class="st0" d="M67,81.9c-0.7,0-1.5-0.2-2.1-0.6c-1.3-0.8-2.3-2.1-2.6-3.6s0.1-3.1,1-4.3c1.1-1.5,2.8-2.2,4.3-2.7
					c1.6-0.5,3.2-1,4.8-1.2c0.4-0.1,0.8,0.2,0.9,0.6s-0.2,0.8-0.6,0.9c-1.5,0.3-3.1,0.7-4.6,1.2c-1.3,0.5-2.8,1.1-3.7,2.2
					c-0.7,0.9-0.9,2.1-0.7,3.1c0.2,1.1,0.9,2.1,1.9,2.6c0.7,0.4,1.7,0.6,2.2,0.1c0.4-0.3,0.6-1,0.4-1.7c-0.2-0.6-0.6-1.2-1.3-1.7
					c-0.6-0.5-1.2-0.9-2.2-1.3c-0.4-0.2-0.5-0.6-0.3-1s0.6-0.5,1-0.3c1,0.5,1.8,1,2.4,1.5c0.9,0.8,1.5,1.6,1.8,2.5
					c0.4,1.2,0,2.5-0.8,3.2C68.4,81.7,67.7,81.9,67,81.9z"/>
			</g>
		</g>
		<path class="st0" d="M74.1,141.9C36,141.9,5,110.9,5,72.8S36,3.7,74.1,3.7s69.1,31,69.1,69.1S112.2,141.9,74.1,141.9z M74.1,5.2
			C36.8,5.2,6.5,35.6,6.5,72.8c0,37.3,30.3,67.6,67.6,67.6s67.6-30.3,67.6-67.6C141.7,35.6,111.4,5.2,74.1,5.2z"/>
	</g>
</g>
</svg>
