<?xml version="1.0" encoding="utf-8"?>
<!-- Generator: Adobe Illustrator 22.0.0, SVG Export Plug-In . SVG Version: 6.00 Build 0)  -->
<svg version="1.1" id="Layer_1" xmlns="http://www.w3.org/2000/svg" xmlns:xlink="http://www.w3.org/1999/xlink" x="0px" y="0px"
	 viewBox="0 0 146.3 146" style="enable-background:new 0 0 146.3 146;" xml:space="preserve">
<style type="text/css">
	.st0{fill:#222E3B;}
</style>
<g>
	<g>
		<g>
			<g>
				<g>
					<polygon class="st0" points="97.8,80.5 92.3,80.5 92.3,79.4 96.7,79.4 96.7,52.2 53.8,52.2 53.8,79.4 57.9,79.4 57.9,80.5 
						52.7,80.5 52.7,51.2 97.8,51.2 					"/>
				</g>
				<g>
					<rect x="64.2" y="79.4" class="st0" width="7.5" height="1.1"/>
				</g>
				<g>
					<rect x="78.5" y="79.4" class="st0" width="7.5" height="1.1"/>
				</g>
			</g>
			<g>
				<g>
					<g>
						<g>
							<g>
								<g>
									<path class="st0" d="M60.7,85.7c-2.2,0-4-1.8-4-4v-1.4c0-2.2,1.8-4,4-4s4,1.8,4,4v1.4C64.7,83.9,62.9,85.7,60.7,85.7z
										 M60.7,77.3c-1.6,0-3,1.3-3,3v1.4c0,1.6,1.3,3,3,3s3-1.3,3-3v-1.4C63.6,78.6,62.3,77.3,60.7,77.3z"/>
								</g>
								<g>
									<path class="st0" d="M68.5,95.5h-1.1v-7.9c0-0.1-0.1-0.2-0.2-0.3l-4.4-2.8l0.6-0.9l4.4,2.7c0.4,0.2,0.7,0.7,0.7,1.2V95.5z"
										/>
								</g>
								<g>
									<path class="st0" d="M54.1,95.5H53v-7.9c0-0.5,0.3-1,0.8-1.3l4.3-2.7l0.6,0.9l-4.4,2.7c-0.2,0.1-0.3,0.2-0.3,0.3v8H54.1z"
										/>
								</g>
							</g>
						</g>
						<g>
							<rect x="63.6" y="91.4" class="st0" width="1.1" height="4.2"/>
						</g>
						<g>
							<rect x="56.6" y="91.4" class="st0" width="1.1" height="4.2"/>
						</g>
					</g>
				</g>
				<g>
					<g>
						<g>
							<g>
								<g>
									<path class="st0" d="M75.2,85.7c-2.2,0-4-1.8-4-4v-1.4c0-2.2,1.8-4,4-4s4,1.8,4,4v1.4C79.2,83.9,77.4,85.7,75.2,85.7z
										 M75.2,77.3c-1.6,0-3,1.3-3,3v1.4c0,1.6,1.3,3,3,3c1.6,0,3-1.3,3-3v-1.4C78.1,78.6,76.8,77.3,75.2,77.3z"/>
								</g>
								<g>
									<path class="st0" d="M83,95.5h-1v-7.9c0-0.1-0.1-0.2-0.2-0.3l-4.4-2.8l0.6-0.9l4.4,2.7c0.4,0.2,0.7,0.7,0.7,1.2L83,95.5
										L83,95.5z"/>
								</g>
								<g>
									<path class="st0" d="M68.5,95.5h-1.1v-7.9c0-0.5,0.3-1,0.8-1.3l4.3-2.7l0.6,0.9l-4.4,2.7c-0.2,0.1-0.3,0.2-0.3,0.3
										L68.5,95.5L68.5,95.5z"/>
								</g>
							</g>
						</g>
						<g>
							<rect x="78.1" y="91.4" class="st0" width="1.1" height="4.2"/>
						</g>
						<g>
							<rect x="71.1" y="91.4" class="st0" width="1.1" height="4.2"/>
						</g>
					</g>
				</g>
				<g>
					<g>
						<g>
							<g>
								<g>
									<path class="st0" d="M89.6,85.7c-2.2,0-4-1.8-4-4v-1.4c0-2.2,1.8-4,4-4s4,1.8,4,4v1.4C93.7,83.9,91.9,85.7,89.6,85.7z
										 M89.6,77.3c-1.6,0-3,1.3-3,3v1.4c0,1.6,1.3,3,3,3c1.6,0,3-1.3,3-3v-1.4C92.6,78.6,91.3,77.3,89.6,77.3z"/>
								</g>
								<g>
									<path class="st0" d="M97.5,95.5h-1.1v-7.9c0-0.1-0.1-0.2-0.2-0.3l-4.4-2.8l0.6-0.9l4.4,2.7c0.4,0.2,0.7,0.7,0.7,1.2V95.5z"
										/>
								</g>
								<g>
									<path class="st0" d="M83,95.5h-1v-7.9c0-0.5,0.3-1,0.8-1.3l4.3-2.7l0.6,0.9l-4.4,2.7c-0.2,0.1-0.3,0.2-0.3,0.3V95.5z"/>
								</g>
							</g>
						</g>
						<g>
							<rect x="92.6" y="91.4" class="st0" width="1.1" height="4.2"/>
						</g>
						<g>
							<rect x="85.6" y="91.4" class="st0" width="1.1" height="4.2"/>
						</g>
					</g>
				</g>
			</g>
			<g>
				<g>
					<path class="st0" d="M75.3,74.4c-4.7,0-8.5-3.8-8.5-8.5s3.8-8.5,8.5-8.5s8.5,3.8,8.5,8.5C83.8,70.5,80,74.4,75.3,74.4z
						 M75.3,58.3c-4.1,0-7.5,3.4-7.5,7.5s3.4,7.5,7.5,7.5s7.5-3.4,7.5-7.5C82.7,61.7,79.4,58.3,75.3,58.3z"/>
				</g>
				<g>
					<path class="st0" d="M72.7,70.1v-8.7l7.5,4.3L72.7,70.1z M73.8,63.3v5l4.3-2.5L73.8,63.3z"/>
				</g>
			</g>
		</g>
		<path class="st0" d="M74.8,141.4c-38.1,0-69.1-31-69.1-69.1s31-69.1,69.1-69.1s69.1,31,69.1,69.1S112.9,141.4,74.8,141.4z
			 M74.8,4.7C37.5,4.7,7.1,35,7.1,72.3s30.3,67.6,67.6,67.6s67.6-30.3,67.6-67.6C142.4,35,112.1,4.7,74.8,4.7z"/>
	</g>
</g>
</svg>
