<?xml version="1.0" encoding="utf-8"?>
<!-- Generator: Adobe Illustrator 22.0.0, SVG Export Plug-In . SVG Version: 6.00 Build 0)  -->
<svg version="1.1" id="Layer_1" xmlns="http://www.w3.org/2000/svg" xmlns:xlink="http://www.w3.org/1999/xlink" x="0px" y="0px"
	 viewBox="0 0 149 147" style="enable-background:new 0 0 149 147;" xml:space="preserve">
<style type="text/css">
	.st0{fill:#222E3B;}
</style>
<g>
	<g>
		<g>
			<g>
				<g>
					<g>
						<g>
							<path class="st0" d="M66.6,56.8c-1.7,0-3.1-1.4-3.1-3.1v-1c0-1.7,1.4-3.1,3.1-3.1s3.1,1.4,3.1,3.1v1
								C69.7,55.5,68.3,56.8,66.6,56.8z M66.6,50.8c-1.1,0-2,0.9-2,2v1c0,1.1,0.9,2,2,2s2-0.9,2-2v-1C68.6,51.7,67.7,50.8,66.6,50.8
								z"/>
						</g>
						<g>
							<path class="st0" d="M72.5,61h-1.1v-3.5L68.2,56l0.5-1l3.1,1.5c0.4,0.2,0.7,0.6,0.7,1.1C72.5,57.6,72.5,61,72.5,61z"/>
						</g>
						<g>
							<path class="st0" d="M62,61h-1.1v-3.5c0-0.5,0.3-0.9,0.7-1.1l3.1-1.5l0.5,1l-3.1,1.5L62,61z"/>
						</g>
					</g>
				</g>
				<g>
					<path class="st0" d="M66.6,63.6c-5,0-9.1-4.1-9.1-9.1s4.1-9.1,9.1-9.1s9.1,4.1,9.1,9.1S71.6,63.6,66.6,63.6z M66.6,46.6
						c-4.4,0-8,3.6-8,8s3.6,8,8,8s8-3.6,8-8C74.6,50.1,71,46.6,66.6,46.6z"/>
				</g>
				<g>
					<rect x="68.6" y="59.6" class="st0" width="1.1" height="3"/>
				</g>
				<g>
					<rect x="63.6" y="59.6" class="st0" width="1.1" height="3"/>
				</g>
			</g>
			<g>
				<g>
					<g>
						<g>
							<path class="st0" d="M66.6,90.9c-1.7,0-3.1-1.4-3.1-3.1v-1c0-1.7,1.4-3.1,3.1-3.1s3.1,1.4,3.1,3.1v1
								C69.7,89.5,68.3,90.9,66.6,90.9z M66.6,84.8c-1.1,0-2,0.9-2,2v1c0,1.1,0.9,2,2,2s2-0.9,2-2v-1C68.6,85.7,67.7,84.8,66.6,84.8
								z"/>
						</g>
						<g>
							<path class="st0" d="M72.5,95.1h-1.1v-3.5l-3.2-1.5l0.5-1l3.1,1.5c0.4,0.2,0.7,0.6,0.7,1.1V95.1z"/>
						</g>
						<g>
							<path class="st0" d="M62,95.1h-1.1v-3.5c0-0.5,0.3-0.9,0.7-1.1l3.1-1.5l0.5,1l-3.1,1.5L62,95.1z"/>
						</g>
					</g>
				</g>
				<g>
					<path class="st0" d="M66.6,97.6c-5,0-9.1-4.1-9.1-9.1s4.1-9.1,9.1-9.1s9.1,4.1,9.1,9.1S71.6,97.6,66.6,97.6z M66.6,80.6
						c-4.4,0-8,3.6-8,8s3.6,8,8,8s8-3.6,8-8C74.6,84.1,71,80.6,66.6,80.6z"/>
				</g>
				<g>
					<rect x="68.6" y="93.7" class="st0" width="1.1" height="3"/>
				</g>
				<g>
					<rect x="63.6" y="93.7" class="st0" width="1.1" height="3"/>
				</g>
			</g>
			<g>
				<g>
					<g>
						<g>
							<path class="st0" d="M96.4,73.9c-1.7,0-3.1-1.4-3.1-3.1v-1c0-1.7,1.4-3.1,3.1-3.1s3.1,1.4,3.1,3.1v1
								C99.5,72.5,98.1,73.9,96.4,73.9z M96.4,67.8c-1.1,0-2,0.9-2,2v1c0,1.1,0.9,2,2,2s2-0.9,2-2v-1C98.4,68.7,97.5,67.8,96.4,67.8
								z"/>
						</g>
						<g>
							<path class="st0" d="M102.3,78.1h-1.1v-3.5L98,73l0.5-1l3.1,1.5c0.4,0.2,0.7,0.6,0.7,1.1C102.3,74.6,102.3,78.1,102.3,78.1z"
								/>
						</g>
						<g>
							<path class="st0" d="M91.8,78.1h-1.1v-3.5c0-0.5,0.3-0.9,0.7-1.1l3.1-1.5l0.5,1l-3.1,1.5L91.8,78.1z"/>
						</g>
					</g>
				</g>
				<g>
					<path class="st0" d="M96.4,80.6c-5,0-9.1-4.1-9.1-9.1s4.1-9.1,9.1-9.1s9.1,4.1,9.1,9.1S101.4,80.6,96.4,80.6z M96.4,63.6
						c-4.4,0-8,3.6-8,8s3.6,8,8,8s8-3.6,8-8C104.4,67.1,100.8,63.6,96.4,63.6z"/>
				</g>
				<g>
					<rect x="98.4" y="76.6" class="st0" width="1.1" height="3"/>
				</g>
				<g>
					<rect x="93.4" y="76.6" class="st0" width="1.1" height="3"/>
				</g>
			</g>
			<g>
				
					<rect x="79.7" y="57.8" transform="matrix(0.554 -0.8325 0.8325 0.554 -17.3747 95.2969)" class="st0" width="1.1" height="12.2"/>
			</g>
			<g>
				
					<rect x="74.1" y="79" transform="matrix(0.8325 -0.554 0.554 0.8325 -30.6368 57.7666)" class="st0" width="12.2" height="1.1"/>
			</g>
			<g>
				<rect x="66.1" y="65.2" class="st0" width="1.1" height="12.6"/>
			</g>
		</g>
		<path class="st0" d="M76.5,140.7c-38.1,0-69.2-31-69.2-69.2c0-38.1,31-69.2,69.2-69.2s69.2,31,69.2,69.2S114.6,140.7,76.5,140.7z
			 M76.5,3.9C39.2,3.9,8.8,34.2,8.8,71.5s30.4,67.7,67.7,67.7s67.7-30.4,67.7-67.7S113.8,3.9,76.5,3.9z"/>
	</g>
</g>
</svg>
