<?xml version="1.0" encoding="utf-8"?>
<!-- Generator: Adobe Illustrator 22.0.0, SVG Export Plug-In . SVG Version: 6.00 Build 0)  -->
<svg version="1.1" id="Layer_1" xmlns="http://www.w3.org/2000/svg" xmlns:xlink="http://www.w3.org/1999/xlink" x="0px" y="0px"
	 viewBox="0 0 143 148" style="enable-background:new 0 0 143 148;" xml:space="preserve">
<style type="text/css">
	.st0{fill:#222E3B;}
</style>
<g>
	<g>
		<g>
			<g>
				<g>
					<g>
						<g>
							<path class="st0" d="M90.4,92.9H52.2c-2.2,0-4-1.8-4-4v-31c0-1.7,1.4-3.2,3.2-3.2h40c1.7,0,3.2,1.4,3.2,3.2v30.9
								C94.4,91.1,92.6,92.9,90.4,92.9z M51.3,56.3c-0.9,0-1.7,0.7-1.7,1.7v30.9c0,1.4,1.1,2.5,2.5,2.5h38.2c1.4,0,2.5-1.1,2.5-2.5
								v-31c0-0.9-0.7-1.7-1.7-1.7L51.3,56.3L51.3,56.3z"/>
							<path class="st0" d="M54.5,61.5c-0.6,0-1.2-0.5-1.2-1.2c0-0.6,0.5-1.2,1.2-1.2c0.6,0,1.2,0.5,1.2,1.2S55.2,61.5,54.5,61.5z
								 M54.5,60c-0.2,0-0.3,0.1-0.3,0.3s0.1,0.3,0.3,0.3s0.3-0.1,0.3-0.3C54.9,60.2,54.7,60,54.5,60z"/>
							<path class="st0" d="M59.3,61.5c-0.6,0-1.2-0.5-1.2-1.2c0-0.6,0.5-1.2,1.2-1.2c0.6,0,1.2,0.5,1.2,1.2S60,61.5,59.3,61.5z
								 M59.3,60c-0.2,0-0.3,0.1-0.3,0.3s0.1,0.3,0.3,0.3s0.3-0.1,0.3-0.3C59.7,60.2,59.5,60,59.3,60z"/>
							<path class="st0" d="M64.1,61.5c-0.6,0-1.2-0.5-1.2-1.2c0-0.6,0.5-1.2,1.2-1.2c0.6,0,1.2,0.5,1.2,1.2
								C65.3,61,64.8,61.5,64.1,61.5z M64.1,60c-0.2,0-0.3,0.1-0.3,0.3s0.1,0.3,0.3,0.3c0.2,0,0.3-0.1,0.3-0.3
								C64.5,60.2,64.3,60,64.1,60z"/>
						</g>
						<path class="st0" d="M93.8,65.9H48.9c-0.4,0-0.7-0.3-0.7-0.7c0-0.4,0.3-0.7,0.7-0.7h44.9c0.4,0,0.7,0.3,0.7,0.7
							C94.5,65.5,94.2,65.9,93.8,65.9z"/>
					</g>
					<path class="st0" d="M89.5,79.7H66.7c-0.4,0-0.7-0.3-0.7-0.7V68.4c0-0.4,0.3-0.7,0.7-0.7h22.8c0.4,0,0.7,0.3,0.7,0.7V79
						C90.3,79.4,90,79.7,89.5,79.7z M67.5,78.2h21.3v-9.1H67.5V78.2z"/>
					<g>
						<path class="st0" d="M74.3,70.5h1l2.6,6h-1.1l-0.6-1.4h-2.8l-0.6,1.4h-1.1L74.3,70.5z M75.8,74.1l-1-2.4l-1,2.4H75.8z"/>
						<path class="st0" d="M78.9,70.6h2.2c1.9,0,3.1,1.3,3.1,2.9l0,0c0,1.7-1.3,3-3.1,3h-2.2V70.6z M79.9,71.5v4h1.2
							c1.2,0,2.1-0.8,2.1-2l0,0c0-1.2-0.8-2-2.1-2H79.9z"/>
					</g>
					<path class="st0" d="M71,73.9h-1.6c-0.4,0-0.7-0.3-0.7-0.7c0-0.4,0.3-0.7,0.7-0.7H71c0.4,0,0.7,0.3,0.7,0.7
						C71.7,73.5,71.4,73.9,71,73.9z"/>
					<path class="st0" d="M87.4,73.9h-1.6c-0.4,0-0.7-0.3-0.7-0.7c0-0.4,0.3-0.7,0.7-0.7h1.6c0.4,0,0.7,0.3,0.7,0.7
						C88.2,73.5,87.8,73.9,87.4,73.9z"/>
				</g>
			</g>
			<path class="st0" d="M64.1,69.1H51.8c-0.4,0-0.7-0.3-0.7-0.7c0-0.4,0.3-0.7,0.7-0.7H64c0.4,0,0.7,0.3,0.7,0.7
				C64.8,68.8,64.5,69.1,64.1,69.1z"/>
			<path class="st0" d="M64.1,78.7H51.8c-0.4,0-0.7-0.3-0.7-0.7c0-0.4,0.3-0.7,0.7-0.7H64c0.4,0,0.7,0.3,0.7,0.7
				C64.8,78.3,64.5,78.7,64.1,78.7z"/>
			<path class="st0" d="M64.1,81.9H51.8c-0.4,0-0.7-0.3-0.7-0.7c0-0.4,0.3-0.7,0.7-0.7H64c0.4,0,0.7,0.3,0.7,0.7
				C64.8,81.5,64.5,81.9,64.1,81.9z"/>
			<path class="st0" d="M64.1,85H51.8c-0.4,0-0.7-0.3-0.7-0.7s0.3-0.7,0.7-0.7H64c0.4,0,0.7,0.3,0.7,0.7S64.5,85,64.1,85z"/>
			<path class="st0" d="M64.1,88.2H51.8c-0.4,0-0.7-0.3-0.7-0.7c0-0.4,0.3-0.7,0.7-0.7H64c0.4,0,0.7,0.3,0.7,0.7
				C64.8,87.9,64.5,88.2,64.1,88.2z"/>
			<path class="st0" d="M72.5,141.7c-38.2,0-69.2-31.1-69.2-69.2c0-38.2,31.1-69.2,69.2-69.2c38.2,0,69.2,31.1,69.2,69.2
				C141.8,110.7,110.7,141.7,72.5,141.7z M72.5,4.8C35.2,4.8,4.8,35.2,4.8,72.5s30.4,67.7,67.7,67.7s67.7-30.4,67.7-67.7
				C140.3,35.2,109.9,4.8,72.5,4.8z"/>
		</g>
	</g>
</g>
</svg>
