<?xml version="1.0" encoding="utf-8"?>
<!-- Generator: Adobe Illustrator 22.0.0, SVG Export Plug-In . SVG Version: 6.00 Build 0)  -->
<svg version="1.1" id="Layer_1" xmlns="http://www.w3.org/2000/svg" xmlns:xlink="http://www.w3.org/1999/xlink" x="0px" y="0px"
	 viewBox="0 0 149 147.7" style="enable-background:new 0 0 149 147.7;" xml:space="preserve">
<style type="text/css">
	.st0{fill:#222E3B;}
</style>
<g>
	<g>
		<g>
			<g>
				<path class="st0" d="M95.5,97.6H81.6c-0.4,0-0.7-0.3-0.7-0.7v-5.1c0-0.6,0.3-1.1,0.8-1.4s1.1-0.2,1.6,0.1l0.1,0.1
					c0.4,0.3,1,0.2,1.3-0.2c0.2-0.2,0.2-0.5,0.2-0.8c-0.1-0.4-0.4-0.6-0.7-0.7c-0.3-0.1-0.6,0-0.8,0.2c-0.5,0.4-1.1,0.4-1.6,0.2
					c-0.5-0.3-0.9-0.8-0.9-1.4v-5.1c0-0.4,0.3-0.7,0.7-0.7h5.1l0.6-0.6L86.7,82c-0.5-0.6-0.7-1.3-0.5-2c0.2-0.9,0.9-1.7,1.9-1.9
					c0.7-0.2,1.5,0,2.1,0.5s0.9,1.2,0.9,1.9c0,0.5-0.2,1.1-0.5,1.5v0.1h0.1h5c0.4,0,0.7,0.3,0.7,0.7v14.1
					C96.3,97.2,95.9,97.6,95.5,97.6z M82.3,96.1h12.4V83.5h-4.3c-0.6,0-1.1-0.3-1.4-0.9c-0.3-0.5-0.2-1.1,0.1-1.6v-0.1
					c0.1-0.2,0.2-0.4,0.2-0.6c0-0.3-0.1-0.6-0.3-0.7c-0.2-0.2-0.5-0.3-0.8-0.2c-0.4,0.1-0.6,0.4-0.7,0.7c-0.1,0.3,0,0.6,0.2,0.8
					c0.4,0.5,0.5,1.1,0.2,1.7c-0.3,0.5-0.8,0.9-1.4,0.9h-4.3v4.4c0.6-0.4,1.3-0.6,2.1-0.5c0.9,0.2,1.7,0.9,1.9,1.9
					c0.2,0.7,0,1.5-0.5,2.1c-0.8,1-2.4,1.2-3.4,0.4h-0.1L82.3,96.1z"/>
				<path class="st0" d="M73.2,85.7H68c-0.5,0-0.9-0.3-1.2-0.7c-0.2-0.4-0.2-0.9,0.1-1.3l0.7,0.4L67,83.6c0.2-0.2,0.2-0.4,0.2-0.7
					c0-0.3-0.1-0.6-0.4-0.9c-0.3-0.2-0.6-0.3-0.9-0.2c-0.4,0.1-0.8,0.4-0.9,0.9c-0.1,0.3,0,0.6,0.2,0.9c0.3,0.4,0.4,0.9,0.2,1.4
					c-0.2,0.5-0.7,0.7-1.2,0.7H59c-0.4,0-0.7-0.3-0.7-0.7V71c0-0.4,0.3-0.7,0.7-0.7h5.1c0.5,0,1,0.3,1.2,0.7c0.2,0.5,0.2,1-0.1,1.4
					l-0.1,0.1c-0.1,0.2-0.2,0.4-0.2,0.7c0,0.3,0.1,0.6,0.4,0.8c0.3,0.2,0.6,0.3,0.9,0.2c0.4-0.1,0.8-0.4,0.9-0.9
					c0.1-0.3,0-0.6-0.2-0.9l0,0c-0.3-0.4-0.4-0.9-0.1-1.4c0.2-0.5,0.7-0.8,1.2-0.8h5.1c0.4,0,0.7,0.3,0.7,0.7v4.9
					c0,0.1,0.1,0.2,0.1,0.2c0.1,0,0.1,0,0.2,0c0.6-0.5,1.3-0.7,2.1-0.6c1.1,0.2,1.9,1,2.1,2c0.2,0.8,0,1.6-0.5,2.2
					c-0.9,1-2.5,1.2-3.6,0.4c-0.1-0.1-0.2-0.1-0.3-0.1c0,0-0.1,0.1-0.1,0.2V85C74,85.4,73.6,85.7,73.2,85.7z M68.4,84.2h4v-4.1
					c0-0.6,0.4-1.2,0.9-1.5c0.6-0.3,1.3-0.2,1.8,0.1l0.1,0.1c0.4,0.3,1.2,0.3,1.5-0.2c0.2-0.3,0.3-0.6,0.2-0.9
					c-0.1-0.4-0.4-0.8-0.9-0.9l0,0c-0.3-0.1-0.6,0-0.9,0.2c-0.5,0.4-1.2,0.5-1.8,0.2c-0.6-0.3-1-0.9-1-1.5v-4.1h-4.1
					c0.3,0.5,0.5,1.2,0.4,1.8c-0.2,1.1-1,1.9-2,2.1c-0.8,0.2-1.6,0-2.2-0.5s-0.9-1.2-0.9-2c0-0.5,0.1-1,0.4-1.4h-4.1v12.5h4
					c-0.3-0.5-0.4-1.1-0.3-1.8c0.2-1.1,1-1.9,2-2.1c0.8-0.2,1.6,0,2.2,0.5s0.9,1.2,0.9,2C68.8,83.4,68.7,83.8,68.4,84.2z"/>
				<g>
					<g>
						<path class="st0" d="M79.9,91.7H57.6c-2.1,0-3.7-1.7-3.7-3.7V59.7c0-1.6,1.3-2.9,2.9-2.9h36.5c1.6,0,2.9,1.3,2.9,2.9V81
							c0,0.4-0.3,0.7-0.7,0.7c-0.4,0-0.7-0.3-0.7-0.7V59.7c0-0.8-0.7-1.5-1.5-1.5H56.8c-0.8,0-1.5,0.7-1.5,1.5V88
							c0,1.2,1,2.2,2.2,2.2h22.3c0.4,0,0.7,0.3,0.7,0.7C80.7,91.4,80.3,91.7,79.9,91.7z"/>
						<path class="st0" d="M59.7,63.1c-0.6,0-1.1-0.5-1.1-1.1s0.5-1.1,1.1-1.1s1.1,0.5,1.1,1.1S60.3,63.1,59.7,63.1z M59.7,61.6
							c-0.2,0-0.4,0.2-0.4,0.4s0.2,0.4,0.4,0.4s0.4-0.2,0.4-0.4C60.1,61.7,59.9,61.6,59.7,61.6z"/>
						<path class="st0" d="M64.1,63.1c-0.6,0-1.1-0.5-1.1-1.1s0.5-1.1,1.1-1.1s1.1,0.5,1.1,1.1S64.7,63.1,64.1,63.1z M64.1,61.6
							c-0.2,0-0.4,0.2-0.4,0.4s0.2,0.4,0.4,0.4c0.2,0,0.4-0.2,0.4-0.4C64.5,61.7,64.3,61.6,64.1,61.6z"/>
						<path class="st0" d="M68.5,63.1c-0.6,0-1.1-0.5-1.1-1.1s0.5-1.1,1.1-1.1s1.1,0.5,1.1,1.1S69.1,63.1,68.5,63.1z M68.5,61.6
							c-0.2,0-0.4,0.2-0.4,0.4s0.2,0.4,0.4,0.4c0.2,0,0.4-0.2,0.4-0.4C68.9,61.7,68.7,61.6,68.5,61.6z"/>
					</g>
					<path class="st0" d="M95.5,67H54.6c-0.4,0-0.7-0.3-0.7-0.7c0-0.4,0.3-0.7,0.7-0.7h40.9c0.4,0,0.7,0.3,0.7,0.7
						C96.3,66.7,95.9,67,95.5,67z"/>
				</g>
			</g>
		</g>
		<path class="st0" d="M74.8,142.7c-38.1,0-69.2-31-69.2-69.2c0-38.1,31-69.2,69.2-69.2s69.2,31,69.2,69.2
			C143.9,111.7,112.9,142.7,74.8,142.7z M74.8,5.9C37.4,5.9,7.1,36.2,7.1,73.5s30.4,67.7,67.7,67.7s67.7-30.4,67.7-67.7
			C142.4,36.2,112.1,5.9,74.8,5.9z"/>
	</g>
</g>
</svg>
