<?xml version="1.0" encoding="utf-8"?>
<!-- Generator: Adobe Illustrator 22.0.0, SVG Export Plug-In . SVG Version: 6.00 Build 0)  -->
<svg version="1.1" id="Layer_1" xmlns="http://www.w3.org/2000/svg" xmlns:xlink="http://www.w3.org/1999/xlink" x="0px" y="0px"
	 viewBox="0 0 154.3 148.3" style="enable-background:new 0 0 154.3 148.3;" xml:space="preserve">
<style type="text/css">
	.st0{fill:#222E3B;}
</style>
<g>
	<g>
		<path class="st0" d="M88.5,58.5c-3.5-3.6-8.4-5.6-13.7-5.6c-5.4,0-10.4,2-13.9,5.5c-3.6,3.6-5.5,8.5-5.5,14c0,5.2,1.9,10,5.4,13.4
			s8.3,5.3,13.5,5.3c2.5,0,5.9-0.8,8-2c0.5-0.3,0.7-1,0.5-1.5c-0.3-0.5-1-0.7-1.5-0.5c-1.8,1-4.9,1.7-7,1.7c-9.7,0-16.7-7-16.7-16.5
			c0-10,7.2-17.3,17.2-17.3c9.8,0,16.9,7.3,16.9,17.4c0,5.5-2.4,8.5-4.7,8.5c-1.5,0-2.9-1.3-2.9-4.3v-0.2l0,0V61.8
			c0-0.6-0.5-1.1-1.1-1.1s-1.1,0.5-1.1,1.1v2.3c-2-2.2-5-3.5-8.2-3.5c-3.1,0-6,1.2-8.1,3.3c-2.1,2.1-3.2,5.1-3.2,8.3
			s1.1,6.1,3.2,8.2s4.9,3.3,8.1,3.3c3.5,0,6.7-1.5,8.7-4c0.2,0.7,0.6,1.2,1,1.8c0.9,1.2,2.2,1.8,3.7,1.8c1.8,0,3.5-1,4.8-2.8
			c1.4-1.9,2.1-4.7,2.1-7.9C93.9,67,91.9,62.1,88.5,58.5z M81.9,76.2c-1.4,3.3-4.5,5.3-8.2,5.3c-5.2,0-9-3.9-9-9.3s3.8-9.4,9-9.4
			c3.7,0,6.9,2,8.2,5.3V76.2z"/>
		<path class="st0" d="M74.4,140.6c-38.1,0-69.2-31-69.2-69.2c0-38.1,31-69.2,69.2-69.2s69.2,31,69.2,69.2S112.5,140.6,74.4,140.6z
			 M74.4,3.8C37.1,3.8,6.7,34.2,6.7,71.5s30.4,67.7,67.7,67.7s67.7-30.4,67.7-67.7C142.1,34.1,111.7,3.8,74.4,3.8z"/>
	</g>
</g>
</svg>
