<?xml version="1.0" encoding="utf-8"?>
<!-- Generator: Adobe Illustrator 22.0.0, SVG Export Plug-In . SVG Version: 6.00 Build 0)  -->
<svg version="1.1" id="Layer_1" xmlns="http://www.w3.org/2000/svg" xmlns:xlink="http://www.w3.org/1999/xlink" x="0px" y="0px"
	 viewBox="0 0 91.5 139.5" style="enable-background:new 0 0 91.5 139.5;" xml:space="preserve">
<style type="text/css">
	.st0{fill:#808080;}
	.st1{font-family:'Gotham-Bold';}
	.st2{font-size:14.3292px;}
</style>
<text transform="matrix(1 0 0 1 7.4204 135.7168)" class="st0 st1 st2">Plata / 2019</text>
<path class="st0" d="M89.8,97.1V4.4C71.5,3.9,70.2,21.8,70.2,21.8v7.6h-8.2v4.2C9.3,41.4,5.5,90.1,5.2,97.1H3v4.6h22.7v-4.6h-2.2
	c7.3-39.2,32.9-45.3,46.7-45.5v45.5h-1.6v4.6h22.7v-4.6H89.8z M79.3,18.4c2.3,0,4.2,1.9,4.2,4.2c0,2.3-1.9,4.2-4.2,4.2
	c-2.3,0-4.2-1.9-4.2-4.2C75.1,20.2,77,18.4,79.3,18.4z"/>
</svg>
