<?xml version="1.0" encoding="utf-8"?>
<!-- Generator: Adobe Illustrator 22.0.0, SVG Export Plug-In . SVG Version: 6.00 Build 0)  -->
<svg version="1.1" id="Layer_1" xmlns="http://www.w3.org/2000/svg" xmlns:xlink="http://www.w3.org/1999/xlink" x="0px" y="0px"
	 viewBox="0 0 143 180" style="enable-background:new 0 0 143 180;" xml:space="preserve">
<style type="text/css">
	.st0{fill:#C0953B;}
	.st1{font-family:'Gotham-Bold';}
	.st2{font-size:14.3292px;}
</style>
<text transform="matrix(1 0 0 1 31.7158 177.8096)" class="st0 st1 st2">Oro / 2019</text>
<g>
	<g>
		<path class="st0" d="M32.3,5c2.6,3.2,5.2,6.4,7.8,9.5c9.3,11.4,18.6,22.9,28,34.3c1,1.3,1,2.2,0.4,3.5c-2.4,5.6-4.7,11.2-7.2,16.7
			c-0.5,1.2-0.4,1.9,0.7,2.6c1,0.6,1.9,1.4,3.1,2.3c0.4-2.9,0.9-5.5,1.3-8.1c0.2-1.4,0.5-2.7,0.6-4.1c0.1-1.1,0.6-1.6,1.6-2
			C91,50.4,113.2,41,135.5,31.5c1.3-0.5,2.6-1.1,4.1-1.2c-2.7,2.4-5.3,4.7-8,7.1c-12,10.7-24.1,21.4-36.1,32.1
			c-0.9,0.8-1,1.3-0.4,2.3c6.4,10.7,12.8,21.5,19.2,32.2c5,8.5,10.1,16.9,15.1,25.4c0.2,0.3,0.4,0.7,0.7,1.3
			c-0.5-0.1-0.8-0.1-1.1-0.2c-11.1-5.8-22.3-11.6-33.4-17.4c-5.3-2.8-10.7-5.6-16.1-8.3c-1.4-0.7-1.8-1.4-1.4-2.9
			c0.7-2.8,1.1-5.6,1.6-8.7c-3.4-0.2-6.6-0.4-9.8-0.5c-0.4,0-0.9,0.4-1.3,0.7c-2.2,1.9-4.4,3.8-7,6.1c0.3-2.7,0.6-4.9,0.9-7.2
			c-21-1.2-41.9-2.3-62.7-3.5c0-0.2-0.1-0.3-0.1-0.5c1-0.6,2-1.2,3-1.8C16.7,78.7,30.7,70.8,44.6,63c1.3-0.7,1.4-1.5,1.1-2.7
			c-3-11.6-5.9-23.2-8.8-34.9c-1.6-6.4-3.2-12.8-4.8-19.2C32,5.8,32,5.5,32,5.1C32.1,5,32.2,5,32.3,5z M81.1,86.1
			c0.3-1.6,0.6-2.9,0.9-4.6c-1.3,1.1-2.2,2-3.2,2.9C79.6,85,80.2,85.5,81.1,86.1z"/>
		<path class="st0" d="M41.6,144.2c0-2.2-0.1-4.4,0-6.6c0.5-10.1,1-20.3,1.6-30.4c0-0.9,0.1-1.5,1.3-1.8c8-2.1,16-4.3,24-6.5
			c0.2-0.1,0.5,0,1.2,0c-9.4,15.3-18.6,30.4-27.8,45.5C41.8,144.3,41.7,144.2,41.6,144.2z"/>
	</g>
</g>
</svg>
