<?xml version="1.0" encoding="utf-8"?>
<!-- Generator: Adobe Illustrator 22.0.0, SVG Export Plug-In . SVG Version: 6.00 Build 0)  -->
<svg version="1.1" id="Layer_1" xmlns="http://www.w3.org/2000/svg" xmlns:xlink="http://www.w3.org/1999/xlink" x="0px" y="0px"
	 viewBox="0 0 78 186.5" style="enable-background:new 0 0 78 186.5;" xml:space="preserve">
<style type="text/css">
	.st0{fill:#C0953B;}
	.st1{font-family:'Gotham-Bold';}
	.st2{font-size:14.3292px;}
	.st3{fill:#222E3B;}
</style>
<text transform="matrix(1 0 0 1 0.5527 183.8096)" class="st0 st1 st2">Oro / 2019</text>
<g>
	<path class="st0" d="M52.6,102.2l10.1-5.8l-3.5-8.8H59l1-31.7c1.9-1.4,0-4.7,0-4.7l0.4-5.4h-2.3l-2.9,0.1L54,45.6l-1.6-0.9
		l-1.3-0.9l-2.3-0.6h-1.1L47,42.3l-2.4-0.5l-2.9,0.4h-2.9l-0.4,45.4h-2l0.5-48.3l4.3,1.1l2.2,0.1l2.4,0.5l0.8,0.9h1.1l2.3,0.6
		l1.3,0.9l1.6,0.9l1.1,0.3l2.1-0.1c-0.2-0.6-0.5-1.1-0.5-1.1l0.4-5.4h-2.3l-2.9,0.1l-1.1-0.3L48,37l-1.3-0.9l-2.3-0.6h-1.1l-0.8-0.9
		l-2.4-0.5L38,33.9l-4.3-1.1l-0.6,54.8h-1.8l0.5-56.8l4.3,1.1l2.2,0.1l2.4,0.5l0.8,0.9h1.1l2.3,0.6l1.3,0.9l1.6,0.9L49,36l2.9-0.1
		h1.5v-2.6l0.4-5.4h-2.7L47.8,28l-1.3-0.3l-1.9-0.9L43.1,26l-2.7-0.6h-1.3l-0.9-0.9l-2.8-0.5l-2.5-0.1l-5-2.7l-0.7,66.4h-1.6
		l0.7-69.4l5,2.7l2.5,0.1l2.8,0.5l0.9,0.9h1.3l2.7,0.6l1.5,0.9l1.9,0.9l1.3,0.3l3.4-0.1h0.7l0-0.4l0-6.3h-2.7l-3.4,0.1L42.9,18
		L41,17.1l-1.5-0.9l-2.7-0.6h-1.3l-0.9-0.9l-2.8-0.5l-2.5-0.1l-5-2.7l-0.7,76.1h-1.4L23,8.7l5,2.7l2.5,0.1l2.8,0.5l0.9,0.9h1.3
		l2.7,0.6l1.5,0.9l1.9,0.9l1.3,0.3l3.4-0.1h1.6l0.2-1.4l0-6.4h-3.2l-4.1,0.1l-1.6-0.3l-2.3-0.9L35,5.8l-3.2-0.6h-1.6l-1.1-0.9
		l-3.4-0.5l-3-0.1l-6.1-2.7L17.1,88l-2.7,4.4v5l13.4,4.7H52.6z"/>
	<g>
		<polygon class="st3" points="26.9,105.1 14.6,100.9 15.5,140.7 17.1,147.7 26.9,152.2 		"/>
		<polygon class="st3" points="53.1,105.5 29.4,105.4 29.4,152.8 52.2,152.8 60.9,145.4 62.5,100 		"/>
	</g>
</g>
</svg>
