<?xml version="1.0" encoding="utf-8"?>
<!-- Generator: Adobe Illustrator 22.0.0, SVG Export Plug-In . SVG Version: 6.00 Build 0)  -->
<svg version="1.1" id="Layer_1" xmlns="http://www.w3.org/2000/svg" xmlns:xlink="http://www.w3.org/1999/xlink" x="0px" y="0px"
	 viewBox="0 0 87.5 186" style="enable-background:new 0 0 87.5 186;" xml:space="preserve">
<style type="text/css">
	.st0{fill:#808080;}
	.st1{font-family:'Gotham-Bold';}
	.st2{font-size:14.3292px;}
	.st3{fill:#222E3B;}
</style>
<text transform="matrix(1 0 0 1 0.5894 184.8096)" class="st0 st1 st2">Plata / 2019</text>
<g>
	<path class="st0" d="M56.9,103.2l10.1-5.8l-3.5-8.8h-0.1l1-31.7c1.9-1.4,0-4.7,0-4.7l0.4-5.4h-2.3l-2.9,0.1l-1.1-0.3l-1.6-0.9
		l-1.3-0.9l-2.3-0.6H52l-0.8-0.9l-2.4-0.5L46,43.1H43l-0.4,45.4h-2l0.5-48.3l4.3,1.1l2.2,0.1l2.4,0.5l0.8,0.9H52l2.3,0.6l1.3,0.9
		l1.6,0.9l1.1,0.3l2.1-0.1c-0.2-0.6-0.5-1.1-0.5-1.1l0.4-5.4H58l-2.9,0.1l-1.1-0.3L52.3,38L51,37.1l-2.3-0.6h-1.1l-0.8-0.9l-2.4-0.5
		l-2.2-0.1L38,33.8l-0.6,54.8h-1.8l0.5-56.8l4.3,1.1l2.2,0.1l2.4,0.5l0.8,0.9h1.1l2.3,0.6l1.3,0.9l1.6,0.9l1.1,0.3l2.9-0.1h1.5v-2.6
		l0.4-5.4h-2.7L52.1,29l-1.3-0.3l-1.9-0.9L47.4,27l-2.7-0.6h-1.3l-0.9-0.9l-2.8-0.5l-2.5-0.1l-5-2.7l-0.7,66.4h-1.6l0.7-69.4l5,2.7
		l2.5,0.1l2.8,0.5l0.9,0.9h1.3l2.7,0.6l1.5,0.9l1.9,0.9l1.3,0.3l3.4-0.1h0.7l0-0.4l0-6.3h-2.7l-3.4,0.1L47.2,19l-1.9-0.9l-1.5-0.9
		l-2.7-0.6h-1.3L39,15.7l-2.8-0.5l-2.5-0.1l-5-2.7L28,88.6h-1.4l0.7-78.8l5,2.7l2.5,0.1l2.8,0.5l0.9,0.9h1.3l2.7,0.6l1.5,0.9
		l1.9,0.9l1.3,0.3l3.4-0.1h1.6l0.2-1.4l0-6.4h-3.2L45,8.8l-1.6-0.3l-2.3-0.9l-1.8-0.9l-3.2-0.6h-1.6l-1.1-0.9L30,4.7l-3-0.1
		l-6.1-2.7L21.4,89l-2.7,4.4v5l13.4,4.7H56.9z"/>
	<g>
		<polygon class="st3" points="31.2,106.1 18.9,101.9 19.9,141.7 21.4,148.7 31.2,153.2 		"/>
		<polygon class="st3" points="57.4,106.5 33.7,106.4 33.7,153.8 56.5,153.8 65.2,146.4 66.8,101 		"/>
	</g>
</g>
</svg>
